<?xml version="1.0" standalone="no"?>
<!DOCTYPE svg PUBLIC "-//W3C//DTD SVG 20010904//EN"
 "http://www.w3.org/TR/2001/REC-SVG-20010904/DTD/svg10.dtd">
<svg version="1.0" xmlns="http://www.w3.org/2000/svg"
 width="260.000000pt" height="260.000000pt" viewBox="0 0 260.000000 260.000000"
 preserveAspectRatio="xMidYMid meet">
<metadata>
Created by potrace 1.11, written by Peter Selinger 2001-2013
</metadata>
<g transform="translate(0.000000,260.000000) scale(0.100000,-0.100000)"
fill="#000000" stroke="none">
<path d="M522 2385 c-155 -34 -274 -154 -307 -311 -22 -102 -22 -1446 0 -1548
34 -159 152 -277 311 -311 102 -22 1446 -22 1548 0 67 14 160 61 193 97 14 15
12 17 -22 24 -20 3 -102 5 -183 2 l-147 -4 -80 241 -80 240 -257 3 -256 2 -50
-127 c-27 -71 -66 -180 -87 -243 l-38 -115 -112 0 -113 0 23 50 c12 28 113
248 222 490 110 242 246 545 303 673 l103 233 99 -3 100 -3 152 -380 c162
-403 339 -822 409 -969 l43 -90 33 52 c68 107 65 70 69 878 2 624 0 742 -12
805 -34 162 -151 280 -312 314 -98 21 -1456 20 -1552 0z m483 -125 c145 -17
209 -43 281 -114 85 -86 108 -146 102 -278 -4 -88 -9 -106 -41 -171 -64 -129
-170 -212 -317 -248 -59 -15 -292 -19 -347 -7 l-33 8 0 -175 c0 -137 13 -380
23 -439 1 -5 -78 -10 -181 -11 l-183 -2 8 96 c11 127 10 1107 0 1238 l-9 102
104 -5 c57 -3 175 -1 263 4 229 13 231 13 330 2z"/>
<path d="M735 2150 c-86 -15 -85 -12 -85 -316 0 -199 3 -265 13 -271 6 -4 54
-9 105 -11 115 -5 166 11 217 71 48 56 68 129 67 248 -1 153 -30 226 -105 259
-52 23 -145 32 -212 20z"/>
<path d="M1402 1201 c-50 -121 -95 -227 -98 -235 -5 -14 17 -16 195 -16 111 0
201 1 201 3 0 7 -170 429 -181 448 -5 10 -13 19 -17 19 -4 0 -49 -99 -100
-219z"/>
</g>
</svg>
